<svg width="148" height="148" viewBox="0 0 148 148" fill="none" xmlns="http://www.w3.org/2000/svg">
<g filter="url(#filter0_d_14_166)">
<path d="M74 136C111.555 136 142 105.555 142 68C142 30.4446 111.555 0 74 0C36.4446 0 6 30.4446 6 68C6 105.555 36.4446 136 74 136Z" fill="#F2F2F2"/>
<path d="M135.972 68.8506C135.972 76.978 134.372 85.0259 131.262 92.5348C128.152 100.044 123.593 106.866 117.846 112.613C112.1 118.36 105.277 122.919 97.768 126.029C90.2591 129.139 82.2113 130.739 74.0839 130.738C66.84 130.734 59.6522 129.467 52.8434 126.994C42.1974 123.116 32.8194 116.391 25.7304 107.552C18.6415 98.7132 14.1133 88.0988 12.6389 76.8647C11.1645 65.6305 12.8004 54.2071 17.3685 43.8382C21.9365 33.4693 29.2617 24.5524 38.5465 18.0582C47.8312 11.564 58.7196 7.74145 70.0263 7.00675C81.333 6.27206 92.6245 8.65335 102.672 13.8914C112.719 19.1294 121.136 27.0234 127.008 36.714C132.879 46.4045 135.98 57.5201 135.972 68.8506Z" fill="white"/>
<path d="M53.3707 75.6404C63.92 75.6404 72.4719 67.0886 72.4719 56.5393C72.4719 45.99 63.92 37.4382 53.3707 37.4382C42.8215 37.4382 34.2696 45.99 34.2696 56.5393C34.2696 67.0886 42.8215 75.6404 53.3707 75.6404Z" fill="#E4E4E4"/>
<path d="M133.557 51.6825C129.417 53.6742 124.699 54.1072 120.265 52.9022C115.832 51.6973 111.982 48.9351 109.42 45.1218C106.858 41.3086 105.756 36.6998 106.316 32.1401C106.876 27.5805 109.061 23.3754 112.469 20.2955C122.599 28.3035 129.972 39.2776 133.557 51.6825Z" fill="#F2F2F2"/>
<path d="M94.7131 96.3562C98.5109 96.3562 101.59 93.2775 101.59 89.4798C101.59 85.6821 98.5109 82.6034 94.7131 82.6034C90.9154 82.6034 87.8367 85.6821 87.8367 89.4798C87.8367 93.2775 90.9154 96.3562 94.7131 96.3562Z" fill="#E4E4E4"/>
<path d="M66.4434 128.446C66.4429 129.05 66.3633 129.651 66.2066 130.234C61.644 129.663 57.1609 128.576 52.8434 126.994C53.202 125.335 54.1615 123.867 55.5373 122.873C56.9131 121.879 58.6079 121.428 60.2958 121.609C61.9837 121.789 63.5453 122.587 64.6802 123.849C65.8151 125.111 66.4432 126.749 66.4434 128.446Z" fill="#F2F2F2"/>
<path d="M25.9491 65.7945C25.9488 69.2831 24.6227 72.6413 22.2395 75.1891C19.8563 77.7368 16.594 79.2838 13.1132 79.5167C11.5376 70.4345 11.9969 61.1159 14.4579 52.2327C17.6683 52.7679 20.5849 54.4244 22.6889 56.9076C24.793 59.3908 25.9482 62.5397 25.9491 65.7945Z" fill="#F2F2F2"/>
<path d="M94.5035 66.6158C94.5035 66.6158 93.3724 69.7599 91.6074 74.2774C91.0366 75.7448 90.3974 77.3556 89.7083 79.0511C88.7482 81.4121 87.6908 83.9378 86.5834 86.4634C85.9021 88.0178 85.2024 89.5699 84.4948 91.0866C80.6913 99.2162 76.6405 106.259 73.9864 106.358C68.0233 106.579 55.2501 70.9099 53.856 66.9686C53.7744 66.7381 53.7324 66.6158 53.7324 66.6158H94.5035Z" fill="#DDBEA9"/>
<path opacity="0.1" d="M91.6074 74.2774C91.0366 75.7448 90.3974 77.3556 89.7082 79.0511L73.9127 66.6158H81.8749L91.6074 74.2774Z" fill="black"/>
<path opacity="0.1" d="M86.5834 86.4634C85.9021 88.0178 85.2024 89.5699 84.4948 91.0867L53.856 66.9686C53.7744 66.7381 53.7324 66.6158 53.7324 66.6158H61.371L86.5834 86.4634Z" fill="black"/>
<path d="M74.8249 35.0246C72.9559 36.3482 70.0004 35.8477 68.2041 37.2496C66.9754 38.2084 66.6477 39.8482 66.9829 41.2751C67.3182 42.7021 68.2091 43.9683 69.1054 45.1865C69.7239 46.0273 70.3657 46.8746 71.2348 47.5141C72.4501 48.4081 74.0096 48.8242 75.5383 49.1585C78.8674 49.8862 82.2669 50.3267 85.69 50.4741C87.2166 50.5397 88.9454 50.4741 89.974 49.4635C90.5729 48.875 90.8138 48.0685 90.9893 47.2885C91.2638 46.0684 91.4164 44.7548 90.8491 43.6183C90.3827 42.6841 89.4852 41.9839 88.5765 41.3623C85.7261 39.4124 82.3691 37.798 80.6294 34.9915C79.938 33.8759 79.5115 32.5832 78.4635 31.7177C77.0973 30.5895 74.0577 30.1282 72.4492 30.8818C72.6976 31.3883 75.9454 34.2311 74.8249 35.0246Z" fill="#DEAAFF"/>
<path d="M59.1188 48.18C58.5646 49.898 58.0541 51.7157 58.5207 53.4543C59.1359 55.7467 61.3841 57.4635 63.8503 58.298C66.3164 59.1324 69.0058 59.2299 71.6409 59.3179L85.4374 59.7785C87.1712 59.8364 88.9385 59.9 90.568 60.4328C91.911 60.872 93.5073 61.5952 94.627 60.7998C95.1348 60.4391 95.3629 59.8551 95.5431 59.298C96.1295 57.4855 96.4576 55.4951 95.669 53.7449C94.7653 51.7394 92.537 50.4215 90.2235 49.7916C87.9099 49.1617 85.4596 49.1003 83.0558 48.8624C80.6174 48.621 78.2063 48.1943 75.8489 47.587C73.878 47.0792 71.8813 46.4091 70.4235 45.1193C69.6349 44.4215 69.0378 43.5706 68.2945 42.8342C64.0368 38.6158 60.166 44.9335 59.1188 48.18Z" fill="#DEAAFF"/>
<path d="M56.0871 56.0727C54.7452 56.61 53.5812 57.4481 52.708 58.5057C51.8347 59.5632 51.2817 60.8045 51.1026 62.1092C50.9234 63.4139 51.1242 64.7379 51.6854 65.9529C52.2466 67.1679 53.1492 68.2328 54.3059 69.0443C56.4067 70.5183 59.1558 71.0309 61.8194 71.2025C64.4202 71.37 67.0324 71.2547 69.6368 71.1394L92.6802 70.119C94.031 70.0592 95.5597 69.9203 96.3843 68.9619C96.9996 68.2467 97.0358 67.2602 96.8889 66.3674C96.3603 63.156 93.648 60.3129 90.1842 59.3396C88.8779 58.9725 87.5025 58.8564 86.1391 58.7423L76.261 57.916C74.9308 57.8048 73.5927 57.6923 72.3035 57.3789C68.3971 56.4297 64.9066 53.658 60.8847 54.0684C58.1561 54.3469 55.9096 56.0546 53.9275 57.754" fill="#DEAAFF"/>
<path opacity="0.1" d="M68.9887 42.1592C68.9887 42.1592 72.2127 47.3632 88.7504 49.4644Z" fill="black"/>
<path opacity="0.1" d="M59.8409 55.7893C59.8409 55.7893 65.8321 61.2071 90.5579 61.2071Z" fill="black"/>
<path d="M73.7233 39.5724C74.595 39.5724 75.3016 39.3618 75.3016 39.1021C75.3016 38.8423 74.595 38.6317 73.7233 38.6317C72.8517 38.6317 72.1451 38.8423 72.1451 39.1021C72.1451 39.3618 72.8517 39.5724 73.7233 39.5724Z" fill="#7D1AAB"/>
<path d="M78.9841 42.6295C79.8558 42.6295 80.5624 42.4189 80.5624 42.1591C80.5624 41.8994 79.8558 41.6888 78.9841 41.6888C78.1125 41.6888 77.4059 41.8994 77.4059 42.1591C77.4059 42.4189 78.1125 42.6295 78.9841 42.6295Z" fill="#7D1AAB"/>
<path d="M85.034 45.9217C85.9057 45.9217 86.6123 45.7111 86.6123 45.4514C86.6123 45.1916 85.9057 44.981 85.034 44.981C84.1624 44.981 83.4558 45.1916 83.4558 45.4514C83.4558 45.7111 84.1624 45.9217 85.034 45.9217Z" fill="#7D1AAB"/>
<path d="M63.9908 47.3327C64.8625 47.3327 65.5691 47.1221 65.5691 46.8624C65.5691 46.6026 64.8625 46.392 63.9908 46.392C63.1192 46.392 62.4126 46.6026 62.4126 46.8624C62.4126 47.1221 63.1192 47.3327 63.9908 47.3327Z" fill="#7D1AAB"/>
<path d="M77.4059 51.8007C78.2775 51.8007 78.9841 51.5901 78.9841 51.3304C78.9841 51.0706 78.2775 50.8601 77.4059 50.8601C76.5343 50.8601 75.8277 51.0706 75.8277 51.3304C75.8277 51.5901 76.5343 51.8007 77.4059 51.8007Z" fill="#7D1AAB"/>
<path d="M58.467 60.972C59.3387 60.972 60.0453 60.7614 60.0453 60.5016C60.0453 60.2419 59.3387 60.0313 58.467 60.0313C57.5954 60.0313 56.8888 60.2419 56.8888 60.5016C56.8888 60.7614 57.5954 60.972 58.467 60.972Z" fill="#7D1AAB"/>
<path d="M68.4625 52.2711C69.3342 52.2711 70.0408 52.0605 70.0408 51.8007C70.0408 51.541 69.3342 51.3304 68.4625 51.3304C67.5909 51.3304 66.8843 51.541 66.8843 51.8007C66.8843 52.0605 67.5909 52.2711 68.4625 52.2711Z" fill="#7D1AAB"/>
<path d="M62.4127 64.4994C63.2843 64.4994 63.9909 64.2888 63.9909 64.0291C63.9909 63.7693 63.2843 63.5587 62.4127 63.5587C61.541 63.5587 60.8344 63.7693 60.8344 64.0291C60.8344 64.2888 61.541 64.4994 62.4127 64.4994Z" fill="#7D1AAB"/>
<path d="M72.6711 62.3829C73.5428 62.3829 74.2494 62.1724 74.2494 61.9126C74.2494 61.6529 73.5428 61.4423 72.6711 61.4423C71.7995 61.4423 71.0929 61.6529 71.0929 61.9126C71.0929 62.1724 71.7995 62.3829 72.6711 62.3829Z" fill="#7D1AAB"/>
<path d="M78.8526 73.6707C79.7969 73.6707 80.5624 72.2493 80.5624 70.496C80.5624 68.7427 79.7969 67.3213 78.8526 67.3213C77.9083 67.3213 77.1429 68.7427 77.1429 70.496C77.1429 72.2493 77.9083 73.6707 78.8526 73.6707Z" fill="#DEAAFF"/>
<path d="M80.957 74.8465C81.9012 74.8465 82.6667 73.4251 82.6667 71.6718C82.6667 69.9185 81.9012 68.4971 80.957 68.4971C80.0127 68.4971 79.2472 69.9185 79.2472 71.6718C79.2472 73.4251 80.0127 74.8465 80.957 74.8465Z" fill="#DEAAFF"/>
</g>
<defs>
<filter id="filter0_d_14_166" x="0" y="0" width="148" height="148" filterUnits="userSpaceOnUse" color-interpolation-filters="sRGB">
<feFlood flood-opacity="0" result="BackgroundImageFix"/>
<feColorMatrix in="SourceAlpha" type="matrix" values="0 0 0 0 0 0 0 0 0 0 0 0 0 0 0 0 0 0 127 0" result="hardAlpha"/>
<feOffset dy="6"/>
<feGaussianBlur stdDeviation="3"/>
<feComposite in2="hardAlpha" operator="out"/>
<feColorMatrix type="matrix" values="0 0 0 0 0 0 0 0 0 0 0 0 0 0 0 0 0 0 0.25 0"/>
<feBlend mode="normal" in2="BackgroundImageFix" result="effect1_dropShadow_14_166"/>
<feBlend mode="normal" in="SourceGraphic" in2="effect1_dropShadow_14_166" result="shape"/>
</filter>
</defs>
</svg>
